<svg width="60" height="60" viewBox="0 0 60 60" fill="none" xmlns="http://www.w3.org/2000/svg">
<g id="Group">
<path id="Vector" d="M60 30C60 13.47 46.53 0 30 0C13.47 0 0 13.47 0 30C0 38.7 3.75 46.53 9.69 52.02C9.69 52.05 9.69 52.05 9.66 52.08C9.96 52.38 10.32 52.62 10.62 52.89C10.8 53.04 10.95 53.19 11.13 53.31C11.67 53.76 12.27 54.18 12.84 54.6C13.05 54.75 13.23 54.87 13.44 55.02C14.01 55.41 14.61 55.77 15.24 56.1C15.45 56.22 15.69 56.37 15.9 56.49C16.5 56.82 17.13 57.12 17.79 57.39C18.03 57.51 18.27 57.63 18.51 57.72C19.17 57.99 19.83 58.23 20.49 58.44C20.73 58.53 20.97 58.62 21.21 58.68C21.93 58.89 22.65 59.07 23.37 59.25C23.58 59.31 23.79 59.37 24.03 59.4C24.87 59.58 25.71 59.7 26.58 59.79C26.7 59.79 26.82 59.82 26.94 59.85C27.96 59.94 28.98 60 30 60C31.02 60 32.04 59.94 33.03 59.85C33.15 59.85 33.27 59.82 33.39 59.79C34.26 59.7 35.1 59.58 35.94 59.4C36.15 59.37 36.36 59.28 36.6 59.25C37.32 59.07 38.07 58.92 38.76 58.68C39 58.59 39.24 58.5 39.48 58.44C40.14 58.2 40.83 57.99 41.46 57.72C41.7 57.63 41.94 57.51 42.18 57.39C42.81 57.12 43.44 56.82 44.07 56.49C44.31 56.37 44.52 56.22 44.73 56.1C45.33 55.74 45.93 55.41 46.53 55.02C46.74 54.9 46.92 54.75 47.13 54.6C47.73 54.18 48.3 53.76 48.84 53.31C49.02 53.16 49.17 53.01 49.35 52.89C49.68 52.62 50.01 52.35 50.31 52.08C50.31 52.05 50.31 52.05 50.28 52.02C56.25 46.53 60 38.7 60 30ZM44.82 44.91C36.69 39.45 23.37 39.45 15.18 44.91C13.86 45.78 12.78 46.8 11.88 47.91C7.32 43.29 4.5 36.96 4.5 30C4.5 15.93 15.93 4.5 30 4.5C44.07 4.5 55.5 15.93 55.5 30C55.5 36.96 52.68 43.29 48.12 47.91C47.25 46.8 46.14 45.78 44.82 44.91Z" fill="#F0A718"/>
<path id="Vector_2" d="M30 14.789C23.79 14.789 18.75 19.829 18.75 26.039C18.75 32.129 23.52 37.079 29.85 37.259H30.12H30.33H30.39C36.45 37.049 41.22 32.129 41.25 26.039C41.25 19.829 36.21 14.789 30 14.789Z" fill="#F0A718"/>
</g>
</svg>
