<svg width="32" height="33" viewBox="0 0 32 33" fill="none" xmlns="http://www.w3.org/2000/svg">
<g id="&#240;&#159;&#166;&#134; icon &#34;search normal 1&#34;">
<g id="Group">
<path id="Vector" d="M15.456 30.8407C7.14575 30.8407 0.379883 24.0749 0.379883 15.7646C0.379883 7.45435 7.14575 0.688477 15.456 0.688477C23.7663 0.688477 30.5321 7.45435 30.5321 15.7646C30.5321 24.0749 23.7663 30.8407 15.456 30.8407ZM15.456 2.89474C8.35184 2.89474 2.58615 8.67515 2.58615 15.7646C2.58615 22.8541 8.35184 28.6345 15.456 28.6345C22.5602 28.6345 28.3259 22.8541 28.3259 15.7646C28.3259 8.67515 22.5602 2.89474 15.456 2.89474Z" fill="#F0A718"/>
<path id="Vector_2" d="M30.9005 32.3115C30.6211 32.3115 30.3416 32.2085 30.121 31.9879L27.1793 29.0462C26.7527 28.6197 26.7527 27.9137 27.1793 27.4871C27.6058 27.0606 28.3118 27.0606 28.7384 27.4871L31.6801 30.4288C32.1066 30.8554 32.1066 31.5614 31.6801 31.9879C31.4594 32.2085 31.18 32.3115 30.9005 32.3115Z" fill="#F0A718"/>
</g>
</g>
</svg>
