<svg width="45" height="45" viewBox="0 0 45 45" fill="none" xmlns="http://www.w3.org/2000/svg">
<path id="Vector" d="M41.8644 18.5427H35.2805C29.8813 18.5427 25.4844 14.323 25.4844 9.14124V2.82261C25.4844 1.6201 24.4592 0.63623 23.2062 0.63623H13.5468C6.53006 0.63623 0.857422 5.00899 0.857422 12.8144V32.1857C0.857422 39.991 6.53006 44.3638 13.5468 44.3638H31.4532C38.4699 44.3638 44.1426 39.991 44.1426 32.1857V20.729C44.1426 19.5265 43.1174 18.5427 41.8644 18.5427ZM21.4293 25.8452C21.0875 26.1731 20.6547 26.3262 20.2218 26.3262C19.789 26.3262 19.3561 26.1731 19.0144 25.8452L17.3741 24.271V33.4319C17.3741 34.3283 16.5995 35.0717 15.6655 35.0717C14.7315 35.0717 13.9569 34.3283 13.9569 33.4319V24.271L12.3166 25.8452C11.6559 26.4792 10.5624 26.4792 9.90174 25.8452C9.24107 25.2111 9.24107 24.1616 9.90174 23.5276L14.4581 19.1548C14.6175 19.0237 14.777 18.9143 14.9593 18.8269C15.0048 18.805 15.0732 18.7832 15.1187 18.7613C15.2554 18.7176 15.3921 18.6957 15.5516 18.6738H15.7338C15.9161 18.6738 16.0984 18.7176 16.2806 18.7832H16.3262C16.5084 18.8488 16.6907 18.9799 16.8274 19.1111C16.8501 19.133 16.8729 19.133 16.8729 19.1548L21.4293 23.5276C22.0899 24.1616 22.0899 25.2111 21.4293 25.8452Z" fill="white"/>
</svg>
